<svg id="Layer_1" enable-background="new 0 0 512 512" height="512" viewBox="0 0 512 512" width="512" xmlns="http://www.w3.org/2000/svg"><path d="m211 271v-135h60v-30h-150v30h60v135c0 19.56-12.54 36.24-30 42.43v2.57h90v-2.57c-17.46-6.19-30-22.87-30-42.43z"/><path d="m512 406v-390h-512v390h196v30c0 16.542-13.458 30-30 30h-45v30h270v-30h-45.004c-16.542 0-29.996-13.458-29.996-30v-30zm-181-90h60v-30h-30v-30h30v-30h-60v-30h60v-30h-30v-30h30v-30h-60v-30h90v270h-90zm-210 30v-60h15c8.27 0 15-6.73 15-15v-105h-30v29h-30v-119h210v119h-30v-29h-30v105c0 8.27 6.73 15 15 15h15v60z"/></svg>